<svg width="60" height="15" viewBox="0 0 60 15" fill="none" xmlns="http://www.w3.org/2000/svg">
<path d="M0.582031 7.69917C0.582031 4.05288 3.53793 1.09698 7.18422 1.09698H52.7622C56.4085 1.09698 59.3643 4.05288 59.3643 7.69917C59.3643 11.3455 56.4085 14.3013 52.7622 14.3013H29.9732H7.18421C3.53793 14.3013 0.582031 11.3455 0.582031 7.69917Z" stroke="#F6F5ED"/>
<path d="M0.0820312 7.69917C0.0820312 3.77674 3.26179 0.596985 7.18422 0.596985H41.9818C45.9042 0.596985 49.0839 3.77674 49.0839 7.69917C49.0839 11.6216 45.9042 14.8013 41.9817 14.8013H24.583H7.18421C3.26178 14.8013 0.0820312 11.6216 0.0820312 7.69917Z" fill="#F6F5ED"/>
</svg>
