<svg width="60" height="15" viewBox="0 0 60 15" fill="none" xmlns="http://www.w3.org/2000/svg">
<path d="M0.582031 7.79517C0.582031 4.14889 3.53793 1.19299 7.18422 1.19299H52.7622C56.4085 1.19299 59.3643 4.14889 59.3643 7.79517C59.3643 11.4415 56.4085 14.3974 52.7622 14.3974H29.9732H7.18421C3.53793 14.3974 0.582031 11.4415 0.582031 7.79517Z" stroke="#F6F5ED"/>
<path d="M0.0820312 7.79517C0.0820312 3.87275 3.26179 0.692993 7.18421 0.692993H46.8819C50.8044 0.692993 53.9841 3.87275 53.9841 7.79517C53.9841 11.7176 50.8044 14.8974 46.8819 14.8974H27.0331H7.18421C3.26179 14.8974 0.0820312 11.7176 0.0820312 7.79517Z" fill="#F6F5ED"/>
</svg>
