<svg width="60" height="16" viewBox="0 0 60 16" fill="none" xmlns="http://www.w3.org/2000/svg">
<path d="M0.582031 8.09651C0.582031 4.45022 3.53793 1.49432 7.18422 1.49432H52.7622C56.4085 1.49432 59.3643 4.45022 59.3643 8.09651C59.3643 11.7428 56.4085 14.6987 52.7622 14.6987H29.9732H7.18421C3.53793 14.6987 0.582031 11.7428 0.582031 8.09651Z" stroke="#F6F5ED"/>
<path d="M0.0820312 8.09651C0.0820312 4.17408 3.26179 0.994324 7.18421 0.994324H46.8819C50.8044 0.994324 53.9841 4.17408 53.9841 8.09651C53.9841 12.0189 50.8044 15.1987 46.8819 15.1987H27.0331H7.18421C3.26179 15.1987 0.0820312 12.0189 0.0820312 8.09651Z" fill="#F6F5ED"/>
</svg>
