<svg width="15" height="21" viewBox="0 0 15 21" fill="none" xmlns="http://www.w3.org/2000/svg">
<path fill-rule="evenodd" clip-rule="evenodd" d="M7.71427 0.564651C3.92152 0.564651 0.854004 3.63217 0.854004 7.42492C0.854004 12.5701 7.71427 20.1654 7.71427 20.1654C7.71427 20.1654 14.5745 12.5701 14.5745 7.42492C14.5745 3.63217 11.507 0.564651 7.71427 0.564651ZM2.81408 7.42492C2.81408 4.72001 5.00937 2.52473 7.71427 2.52473C10.4192 2.52473 12.6145 4.72001 12.6145 7.42492C12.6145 10.2474 9.79195 14.4714 7.71427 17.1077C5.67579 14.491 2.81408 10.218 2.81408 7.42492ZM5.26417 7.42492C5.26417 6.07177 6.36112 4.97482 7.71427 4.97482C8.5896 4.97482 9.39845 5.44181 9.83611 6.19987C10.2738 6.95793 10.2738 7.8919 9.83611 8.64997C9.39845 9.40803 8.5896 9.87501 7.71427 9.87501C6.36112 9.87501 5.26417 8.77807 5.26417 7.42492Z" fill="#003153"/>
</svg>
