<svg width="60" height="15" viewBox="0 0 60 15" fill="none" xmlns="http://www.w3.org/2000/svg">
<path d="M0.582031 7.39784C0.582031 3.75155 3.53793 0.795654 7.18422 0.795654H52.7622C56.4085 0.795654 59.3643 3.75155 59.3643 7.39784C59.3643 11.0441 56.4085 14 52.7622 14H29.9732H7.18421C3.53793 14 0.582031 11.0441 0.582031 7.39784Z" stroke="#F6F5ED"/>
<path d="M0.0820312 7.39784C0.0820312 3.47541 3.26179 0.295654 7.18422 0.295654H36.1015C40.024 0.295654 43.2037 3.47541 43.2037 7.39784C43.2037 11.3203 40.0239 14.5 36.1015 14.5H21.6429H7.18421C3.26178 14.5 0.0820312 11.3203 0.0820312 7.39784Z" fill="#F6F5ED"/>
</svg>
